<mxfile host="app.diagrams.net" modified="2024-06-29T02:37:17.076Z" agent="Mozilla/5.0 (Windows NT 10.0; Win64; x64; rv:126.0) Gecko/20100101 Firefox/126.0" version="24.6.4" etag="8FzuWYWiR--yYr54DIeH" type="github">
  <diagram name="Page-1" id="_GEOhlYqoESXVnc2s0pb">
    <mxGraphModel>
      <root>
        <mxCell id="0" />
        <mxCell id="1" parent="0" />
      </root>
    </mxGraphModel>
  </diagram>
</mxfile>
